<?xml version="1.0" standalone="no"?>
<!DOCTYPE svg PUBLIC "-//W3C//DTD SVG 20010904//EN"
 "http://www.w3.org/TR/2001/REC-SVG-20010904/DTD/svg10.dtd">
<svg version="1.0" xmlns="http://www.w3.org/2000/svg"
 width="564.000000pt" height="564.000000pt" viewBox="0 0 564.000000 564.000000"
 preserveAspectRatio="xMidYMid meet">
<metadata>
Created by potrace 1.11, written by Peter Selinger 2001-2013
</metadata>
<g transform="translate(0.000000,564.000000) scale(0.100000,-0.100000)"
fill="#000000" stroke="none">
<path d="M2618 5615 c-1 -1 -41 -6 -87 -9 -46 -4 -87 -8 -90 -10 -3 -2 -28 -7
-56 -10 -74 -8 -232 -42 -332 -71 -48 -14 -95 -27 -103 -30 -28 -7 -155 -53
-195 -70 -121 -51 -138 -60 -300 -143 -16 -9 -53 -31 -82 -49 -29 -18 -56 -33
-62 -33 -5 0 -11 -3 -13 -7 -1 -5 -39 -32 -83 -62 -213 -145 -433 -351 -600
-561 -33 -41 -63 -76 -67 -78 -5 -2 -8 -9 -8 -16 0 -7 -8 -21 -18 -32 -10 -10
-29 -37 -42 -59 -13 -22 -27 -42 -30 -45 -4 -3 -19 -26 -33 -52 -14 -25 -36
-63 -49 -85 -25 -40 -90 -170 -131 -263 -50 -112 -136 -372 -151 -456 -3 -13
-7 -32 -10 -42 -9 -29 -34 -179 -43 -252 -2 -25 -8 -72 -13 -105 -14 -106 -3
-522 15 -613 3 -15 8 -43 10 -62 9 -76 30 -177 59 -285 9 -33 23 -83 31 -111
38 -138 214 -531 261 -585 8 -8 14 -19 14 -23 0 -8 112 -176 147 -221 13 -16
27 -35 31 -40 81 -111 248 -289 381 -405 35 -30 69 -61 76 -67 8 -7 18 -13 24
-13 6 0 11 -4 11 -9 0 -4 28 -28 62 -52 35 -24 65 -47 66 -51 2 -4 10 -8 18
-8 8 0 14 -4 14 -10 0 -5 5 -10 11 -10 5 0 36 -17 67 -38 31 -21 64 -42 72
-45 8 -4 31 -17 50 -28 52 -32 196 -103 275 -137 129 -55 377 -136 452 -147
11 -2 30 -6 42 -10 11 -3 33 -8 48 -11 16 -2 51 -9 78 -14 28 -5 73 -12 100
-15 28 -3 66 -8 85 -11 19 -2 88 -6 154 -9 65 -3 122 -8 127 -11 5 -3 9 -2 9
3 0 4 44 8 98 9 94 0 220 9 272 18 14 3 43 7 65 10 205 28 479 108 690 202 22
10 42 18 45 19 14 2 166 82 178 92 7 7 24 16 38 19 13 3 24 10 24 15 0 5 5 9
11 9 20 0 236 149 350 242 109 88 254 227 336 324 24 27 49 56 56 64 71 78
212 285 277 405 24 44 48 82 52 83 4 2 8 9 8 16 0 7 17 48 39 92 38 77 117
278 126 322 9 41 15 64 34 131 7 25 14 56 16 70 2 14 4 27 6 29 1 1 2 5 4 10
1 4 5 19 9 33 4 14 9 34 11 45 2 10 4 19 5 19 4 0 27 150 37 240 9 81 9 498 0
558 -4 26 -10 68 -13 95 -3 26 -7 54 -9 62 -2 8 -7 29 -9 46 -3 17 -22 79 -41
139 -20 59 -37 115 -39 124 -3 18 -33 122 -46 161 -4 14 -13 45 -20 70 -23 83
-33 104 -133 275 -55 94 -109 185 -119 204 -11 19 -35 59 -54 88 -19 29 -34
57 -34 61 0 4 -22 35 -48 69 -26 34 -63 84 -82 110 -52 70 -68 89 -145 167
-303 307 -653 530 -1053 672 -112 40 -240 78 -302 90 -14 3 -41 9 -60 14 -19
5 -55 12 -80 15 -24 4 -47 8 -50 10 -3 2 -37 6 -75 10 -39 4 -79 9 -90 12 -23
5 -471 13 -477 8z"/>
</g>
</svg>
